<svg width="4289" height="4289" viewBox="0 0 4289 4289" fill="none" xmlns="http://www.w3.org/2000/svg">
<path d="M798.321 1608.28V1490.72H1482.92V1608.28H1206.32V2528H1074.93V1608.28H798.321ZM1873.56 2541.83C1812.09 2541.83 1756.38 2529.54 1706.44 2504.95C1657.27 2480.36 1618.08 2450.4 1588.88 2415.05L1626.92 2256C1648.43 2299.03 1680.7 2337.83 1723.73 2372.41C1766.76 2406.98 1818.24 2424.27 1878.17 2424.27C1932.72 2424.27 1977.67 2406.98 2013.01 2372.41C2049.13 2337.83 2067.18 2295.19 2067.18 2244.48C2067.18 2207.6 2058.35 2177.25 2040.67 2153.43C2023 2129.61 2003.03 2110.78 1980.74 2096.95C1958.46 2083.12 1940.79 2073.14 1927.73 2066.99L1800.95 2002.45C1780.97 1991.69 1756 1976.71 1726.03 1957.5C1696.84 1938.29 1671.1 1911.78 1648.81 1877.97C1626.53 1844.17 1615.39 1800.37 1615.39 1746.59C1615.39 1694.34 1627.3 1647.85 1651.12 1607.13C1675.71 1566.41 1709.51 1534.52 1752.54 1511.47C1796.34 1488.42 1846.28 1476.89 1902.37 1476.89C1957.69 1476.89 2006.48 1486.88 2048.74 1506.86C2091 1526.07 2124.04 1546.05 2147.86 1566.79L2109.83 1725.84C2090.62 1693.57 2062.19 1663.22 2024.54 1634.79C1986.89 1606.36 1944.25 1592.15 1896.61 1592.15C1850.51 1592.15 1813.63 1605.98 1785.97 1633.64C1758.31 1660.53 1744.47 1693.95 1744.47 1733.91C1744.47 1764.64 1751.39 1790 1765.22 1809.98C1779.82 1829.95 1795.95 1845.7 1813.63 1857.23C1832.07 1868.75 1847.05 1877.59 1858.58 1883.74L1987.66 1948.28C2003.03 1955.96 2022.23 1966.72 2045.28 1980.55C2069.1 1994.38 2092.54 2012.82 2115.59 2035.87C2138.64 2058.15 2157.85 2085.81 2173.22 2118.85C2188.58 2151.12 2196.27 2190.31 2196.27 2236.41C2196.27 2295.57 2182.05 2348.21 2153.62 2394.31C2125.96 2440.41 2087.93 2476.52 2039.52 2502.64C1991.12 2528.77 1935.79 2541.83 1873.56 2541.83ZM2671.72 2537.22C2608.71 2537.22 2551.09 2521.47 2498.84 2489.97C2446.59 2457.7 2404.72 2414.67 2373.21 2360.88C2342.48 2307.1 2327.11 2247.55 2327.11 2182.24C2327.11 2116.93 2342.48 2057.38 2373.21 2003.6C2404.72 1949.82 2446.59 1907.17 2498.84 1875.67C2551.09 1843.4 2608.71 1827.26 2671.72 1827.26C2719.36 1827.26 2763.92 1836.1 2805.41 1853.77C2847.67 1871.44 2884.17 1896.03 2914.9 1927.53V1836.48H3030.16V2528H2914.9V2436.95C2884.17 2467.68 2847.67 2492.27 2805.41 2510.71C2763.92 2528.38 2719.36 2537.22 2671.72 2537.22ZM2687.85 2424.27C2731.65 2424.27 2771.22 2413.52 2806.57 2392C2842.68 2369.72 2871.11 2340.52 2891.85 2304.41C2913.37 2267.53 2924.12 2226.81 2924.12 2182.24C2924.12 2137.68 2913.37 2097.34 2891.85 2061.23C2871.11 2024.35 2842.68 1995.15 2806.57 1973.63C2771.22 1951.35 2731.65 1940.21 2687.85 1940.21C2644.06 1940.21 2604.1 1951.35 2567.99 1973.63C2532.65 1995.15 2504.22 2024.35 2482.7 2061.23C2461.96 2097.34 2451.59 2137.68 2451.59 2182.24C2451.59 2226.81 2461.96 2267.53 2482.7 2304.41C2504.22 2340.52 2532.65 2369.72 2567.99 2392C2604.1 2413.52 2644.06 2424.27 2687.85 2424.27ZM3295.67 2541.83C3270.31 2541.83 3248.8 2533.38 3231.13 2516.47C3214.22 2498.8 3205.77 2477.29 3205.77 2451.93C3205.77 2426.58 3214.22 2405.45 3231.13 2388.54C3248.8 2370.87 3270.31 2362.04 3295.67 2362.04C3321.79 2362.04 3343.31 2370.87 3360.21 2388.54C3377.11 2405.45 3385.57 2426.58 3385.57 2451.93C3385.57 2477.29 3377.11 2498.8 3360.21 2516.47C3343.31 2533.38 3321.79 2541.83 3295.67 2541.83Z" fill="black"/>
</svg>
